<svg xmlns="http://www.w3.org/2000/svg" viewBox="0 0 799.74 117.05"><defs><style>.cls-1{fill:#f8db0f;}.cls-2{fill:#fff;}</style></defs><g id="Layer_2" data-name="Layer 2"><g id="Layer_1-2" data-name="Layer 1"><path class="cls-1" d="M308.44,117.05c0-.37-.21-.63-.35-.92l-6.79-13.35L287.72,76.09,274.36,49.85a4.1,4.1,0,0,1-.48-1.13l.65,0c.39,0,.45-.08.45-.49q0-2.71,0-5.43c0-.5-.07-.56-.6-.56-1.11,0-2.22,0-3.32,0a.8.8,0,0,1-.86-.53c-.17-.4-.38-.78-.56-1.18a.19.19,0,0,1,.18-.28c.23,0,.47,0,.7,0h3.42c.23,0,.47,0,.7,0a.33.33,0,0,0,.32-.32,2.68,2.68,0,0,0,0-.4V34.32a2.69,2.69,0,0,0,0-.4.3.3,0,0,0-.28-.25,2.6,2.6,0,0,0-.4,0h-5.13c-.66,0-.69,0-.7.67s0,1.28,0,1.91a11,11,0,0,1-.46,3.57c-.69,2.52-1.33,5.05-2,7.58,0,.09-.06.17-.14.4a1.83,1.83,0,0,1-.11-.74V43.31c0-.24,0-.47,0-.71a.36.36,0,0,0-.35-.4h-5.63c-.51,0-.57.06-.57.6v5.33c0,.06,0,.13,0,.2,0,.25.16.34.39.35h4.93a2.75,2.75,0,0,1,1,.06c.14.24,0,.45,0,.68q-2.14,8.25-4.3,16.52-2.71,10.5-5.45,21l-6.84,26.35-.51,1.94a.44.44,0,0,1-.49.39h-.8q-11.88,0-23.74,0a3.42,3.42,0,0,1-1.14-.07,4.14,4.14,0,0,1,.24-1.15l7.29-26.53q4.14-15.06,8.27-30.13,1.09-4,2.21-8c0-.19.1-.38.16-.58.15-.46.15-.45.6-.45h5.33c.21,0,.41,0,.61,0a.32.32,0,0,0,.31-.33c0-.13,0-.26,0-.4v-5c0-.13,0-.26,0-.4a.31.31,0,0,0-.33-.3c-.37,0-.74,0-1.11,0h-2.91c-.17,0-.34,0-.49-.13a5.59,5.59,0,0,1,.33-1.43c.08-.37.18-.43.57-.43h2.81c1.2,0,1.15.09,1.15-1.14V34.62c0-.2,0-.4,0-.6a.38.38,0,0,0-.4-.37h-1.2c-.3,0-.61.07-.88-.11-.11-.28,0-.53.12-.77.36-1.23.11-1.13,1.46-1.13.9,0,.9,0,.91-.87V25.94a1.05,1.05,0,0,0,0-.4,2.19,2.19,0,0,1,.09-1.74c.75-2.75,1.51-5.49,2.26-8.24l.11-.38c.16-.53.16-.54.68-.54h5.23q.3,0,.6,0a.3.3,0,0,0,.26-.26,4.32,4.32,0,0,0,0-.5V8.92a4.1,4.1,0,0,0,0-.5.34.34,0,0,0-.33-.32h-4c-.34,0-.44-.12-.37-.42s.21-.78.33-1.16.16-.41.58-.41h3.12c.68,0,.7,0,.71-.76s0-1.27,0-1.91,0-1.27,0-1.91a.36.36,0,0,1,.35-.4,1.51,1.51,0,0,1,.3,0,8.08,8.08,0,0,1,1.9.09A4.33,4.33,0,0,1,259.17,3c0,.87,0,1.74,0,2.61,0,.31.11.42.43.43h5.63c.38,0,.48-.11.48-.48,0-1.18,0-2.35,0-3.52,0-1-.05-1,1-1,.36,0,.73,0,1.1,0,.53,0,.59.07.6.57,0,.77,0,1.54,0,2.31,0,.57,0,1.14,0,1.71a.35.35,0,0,0,.36.39h5.63c.48,0,.55-.08.55-.62,0-1.11,0-2.21,0-3.32,0-.23,0-.47,0-.7a.32.32,0,0,1,.3-.33l.1,0c1.29-.11,1.31-.08,1.93,1.09a2.84,2.84,0,0,1,.36,1.53c0,.64,0,1.28,0,1.92,0,.33.11.42.41.45h.3c1,0,.88,0,1.34.88.17.32.31.65.5,1a5.53,5.53,0,0,1-1.55.08c-1,0-1,0-1,1V13.7c0,.2,0,.4,0,.6a.33.33,0,0,0,.32.32c.27,0,.54,0,.8,0,1.41,0,2.82,0,4.23,0a.83.83,0,0,1,.86.53c.91,1.83,1.84,3.65,2.77,5.47a2.18,2.18,0,0,1,.25,1.06c0,.43,0,.86,0,1.25.11.08.16.16.21.16a1.11,1.11,0,0,1,1.25.88,3.61,3.61,0,0,1,.45,1.17H287.3c-.24,0-.36.13-.36.38,0,.7,0,1.4,0,2.11,0,1.14,0,2.28,0,3.42,0,.49.07.56.59.56h3.83c.94,0,.86-.1,1.3.77.66,1.31.76,1.24-.71,1.24h-4c-.24,0-.47,0-.7,0a.3.3,0,0,0-.27.26,4.32,4.32,0,0,0,0,.5v5c0,.13,0,.27,0,.4a.33.33,0,0,0,.32.32h.2c1.81,0,3.62,0,5.43,0,.52,0,.58-.07.59-.59,0-1.44,0-2.88,0-4.33a1.63,1.63,0,0,1,.06-.73c.23,0,.26.16.31.26l2.06,4a1.6,1.6,0,0,1,.26.85c0,.25,0,.47.32.55a.37.37,0,0,1,.21.2c.28.53.58,1,.79,1.57-.14.25-.33.19-.48.19-.88,0-.84.07-.84.82,0,1.71,0,3.42,0,5.13,0,.47.07.53.51.54,1.14,0,2.28,0,3.42,0a1.09,1.09,0,0,1,1.16.69c1.55,3.12,3.15,6.22,4.72,9.33l11.43,22.49a1.88,1.88,0,0,0,.58.87c.11-.37.21-.67.29-1l4.41-17.54c1.15-4.57,2.29-9.16,3.46-13.73.32-1.26,0-1.11,1.43-1.12H330c.35,0,.42-.09.44-.41,0-.13,0-.27,0-.4V43c0-.13,0-.27,0-.4,0-.33-.1-.43-.41-.44-.51,0-1,0-1.51,0-.32,0-.41-.13-.34-.45,0-.1.05-.19.08-.29.11-.39.07-.87.36-1.13s.78-.09,1.17-.12h.31a.34.34,0,0,0,.33-.31,4.1,4.1,0,0,0,0-.61V34.54a1.06,1.06,0,0,0,0-.4,3.16,3.16,0,0,1,.16-2.06q1.08-4.33,2.18-8.67c.07-.29.16-.58.25-.89.18.05.14.2.15.29s.11.31.31.31l.61,0h4.62l.71,0a.27.27,0,0,0,.25-.26c0-.1,0-.2,0-.3,0-1.77,0-3.55,0-5.33,0-.52-.06-.57-.59-.58-1.14,0-2.28,0-3.42,0-.27,0-.53,0-.8,0s-.35-.15-.29-.41.18-.78.3-1.16.16-.4.58-.41h3.82a.37.37,0,0,0,.39-.37,4.35,4.35,0,0,0,0-.51V8.93c0-.14,0-.27,0-.4,0-.31-.14-.43-.44-.44h-2.4a1.15,1.15,0,0,1,0-.93,6.5,6.5,0,0,1,.25-.86.34.34,0,0,1,.32-.2h.7c.37,0,.74,0,1.11,0s.43-.1.45-.41,0-.53,0-.8c0-1.07,0-2.15,0-3.22,0-.45.1-.54.53-.55s1.07,0,1.6,0,.6.06.6.57c0,1.07,0,2.14,0,3.21,0,.27,0,.54,0,.81a.35.35,0,0,0,.35.39h5.44l.4,0a.31.31,0,0,0,.3-.33c0-.26,0-.53,0-.8,0-1.07,0-2.15,0-3.22,0-.56.06-.61.65-.62s1.14,0,1.71,0a.34.34,0,0,1,.36.39c0,1.1,0,2.21,0,3.31,0,.31,0,.61,0,.91s.15.35.38.36h5.13a5.47,5.47,0,0,0,.7,0,.26.26,0,0,0,.25-.26c0-.27,0-.54,0-.8,0-1.11,0-2.22,0-3.32,0-.5.08-.57.6-.58s1.2,0,1.81,0a.29.29,0,0,1,.31.31c0,.27,0,.54,0,.81,0,1.14,0,2.28,0,3.42,0,.33.1.41.43.43.5,0,1,0,1.5,0a.21.21,0,0,1,.22.26,4.34,4.34,0,0,1-.17.69c-.34,1.06,0,1-1.32,1l-.4,0a.27.27,0,0,0-.24.27c0,.24,0,.47,0,.71,0,1.47,0,2.95,0,4.42a5.28,5.28,0,0,1-.21,1.58c-.85,3.07-1.68,6.14-2.52,9.21-.24.86-.06.84-1.16.84h-5a.31.31,0,0,0-.32.31c0,.17,0,.33,0,.5v4.83c0,.17,0,.33,0,.5a.32.32,0,0,0,.32.32c.27,0,.54,0,.8,0h2.92c.31,0,.4.14.34.46,0,0,0,.07,0,.1-.52,1.68-.09,1.41-1.82,1.44h-2.12c-.31,0-.4.12-.42.44s0,.46,0,.7c0,1.61,0,3.22,0,4.83,0,.53,0,.55.59.57a6.27,6.27,0,0,1,1.54.09c-.14.54-.26,1-.41,1.57a.44.44,0,0,1-.44.34c-.33,0-.67,0-1,0a.27.27,0,0,0-.26.25c0,.24,0,.47,0,.71,0,1.4,0,2.81,0,4.22a4.94,4.94,0,0,1-.2,1.48q-3.13,10.86-6.24,21.73-4.53,15.78-9,31.57L332,117a.34.34,0,0,0,0,.1ZM249.92,36.81h0c0,1,0,1.94,0,2.91,0,.39.08.47.48.47,1.87,0,3.75,0,5.62,0,.36,0,.45-.1.45-.51,0-1.83,0-3.67,0-5.51,0-.44-.09-.53-.53-.53h-5.52c-.44,0-.5.08-.51.56C249.91,35.07,249.92,35.94,249.92,36.81Zm15.82.24h0c0-1,0-1.94,0-2.91,0-.4-.1-.5-.46-.5h-5.63c-.38,0-.47.09-.47.49,0,1.83,0,3.67,0,5.51,0,.49.07.55.61.55,1.71,0,3.41,0,5.12,0,.13,0,.27,0,.4,0,.32,0,.42-.11.42-.43C265.74,38.85,265.74,38,265.74,37.05Zm0-25.67h0c0-.94,0-1.87,0-2.81,0-.39-.09-.48-.48-.48h-5.62c-.37,0-.46.09-.46.49q0,2.76,0,5.52c0,.45.08.53.53.54h5.51c.44,0,.51-.08.52-.55C265.75,13.19,265.74,12.28,265.74,11.38Zm5.83,3.26h2.71c.67,0,.7,0,.7-.66,0-1.74,0-3.48,0-5.21a2.6,2.6,0,0,0,0-.4.28.28,0,0,0-.26-.26,1.53,1.53,0,0,0-.3,0H269c-.49,0-.55.06-.56.6,0,1,0,2.08,0,3.11,0,.8,0,1.61,0,2.41,0,.32.11.42.42.42Zm74.1,0h1c.64,0,1.27,0,1.91,0,.32,0,.4-.1.43-.42s0-.34,0-.5V9.9c0-.44,0-.87,0-1.31s-.09-.5-.46-.5h-5.62c-.39,0-.47.08-.47.48q0,2.81,0,5.61c0,.37.09.45.5.46Zm6-3.38c0,1,0,1.94,0,2.91,0,.38.09.46.49.47h5.51c.46,0,.54-.07.54-.53,0-1.83,0-3.67,0-5.51V8.5c0-.31-.12-.41-.44-.41h-5.62c-.39,0-.47.08-.48.47C351.7,9.46,351.71,10.36,351.71,11.26ZM281,33.64h-2.8c-.39,0-.48.09-.48.48,0,1.88,0,3.75,0,5.62,0,.36.1.45.51.45,1.83,0,3.67,0,5.51,0,.45,0,.53-.08.53-.53V34.14c0-.43-.08-.5-.56-.5Zm55.63,0h-2.91c-.4,0-.49.09-.49.47v5.61c0,.39.09.47.49.47,1.81,0,3.61,0,5.42,0,.6,0,.64,0,.64-.61,0-1.78,0-3.55,0-5.32a1.34,1.34,0,0,0,0-.2c0-.32-.11-.41-.44-.42ZM349,36.91h0c0-.91,0-1.81,0-2.71,0-.47-.08-.56-.51-.56H343c-.46,0-.53.08-.53.53q0,2.76,0,5.52c0,.41.08.5.45.5,1.87,0,3.74,0,5.62,0,.39,0,.47-.09.48-.48C349,38.78,349,37.84,349,36.91Zm-6.49-20.17a.32.32,0,0,0,0,.09c0,2,0,4,0,5.93,0,.29.1.37.47.37,1.84,0,3.68,0,5.53,0,.5,0,.55-.05.55-.6,0-1.78,0-3.55,0-5.33,0-.51-.07-.59-.58-.59H343A.76.76,0,0,0,342.52,16.74Zm9.26,0a.32.32,0,0,0,0,.09c0,2,0,4,0,5.92,0,.3.11.38.46.38,1.84,0,3.68,0,5.53,0,.5,0,.55-.05.55-.6,0-1.77,0-3.55,0-5.32,0-.52-.07-.6-.57-.6h-5.42A.74.74,0,0,0,351.78,16.74Zm-6,8.4h0c-.94,0-1.88,0-2.81,0-.47,0-.53.07-.53.52,0,1.61,0,3.21,0,4.82,0,.24,0,.47,0,.71s.1.44.5.46h5.22a4.1,4.1,0,0,0,.5,0,.34.34,0,0,0,.33-.32c0-.2,0-.4,0-.6V26.1c0-.2,0-.4,0-.6a.34.34,0,0,0-.39-.36Zm-12.6,3.12h0c0,.73,0,1.47,0,2.21v.8c0,.25.15.35.38.38h.2c1.8,0,3.61,0,5.42,0,.46,0,.55-.09.55-.52,0-1.84,0-3.68,0-5.53,0-.39-.08-.47-.48-.47h-5.62c-.38,0-.44.09-.45.5C333.19,26.51,333.2,27.39,333.2,28.26ZM275,19.87h0c0-.9,0-1.8,0-2.7,0-.44-.09-.53-.54-.53-1.84,0-3.67,0-5.51,0-.39,0-.48.1-.49.47,0,.63,0,1.27,0,1.9,0,1.21,0,2.41,0,3.61,0,.45.06.51.53.51h5.42c.55,0,.59-.05.59-.66C275,21.61,275,20.74,275,19.87Zm-21.82,3.27h2.51c.79,0,.8,0,.8-.76,0-.94,0-1.87,0-2.81s0-1.6,0-2.41c0-.43-.09-.52-.54-.52-1.81,0-3.61,0-5.42,0-.52,0-.59.07-.6.57,0,.8,0,1.6,0,2.41,0,1,0,2,0,3,0,.46.06.51.53.51Zm9.22,0h0c1,0,1.94,0,2.91,0,.33,0,.42-.09.43-.41,0-.17,0-.34,0-.5V17.6c0-1,0-1-1-1h-4.52c-.2,0-.4,0-.6,0s-.43.12-.43.43v5.62c0,.36.09.44.5.44Zm-9.18,8.49h.7c.67,0,1.34,0,2,0,.49,0,.54-.08.57-.6v-.1c0-1.71,0-3.41,0-5.12a2.55,2.55,0,0,0,0-.39.27.27,0,0,0-.26-.26c-.23,0-.46,0-.7,0h-5.21a.34.34,0,0,0-.36.39c0,1.87,0,3.74,0,5.61,0,.38.09.48.47.48Zm37,17.05h2.71c.54,0,.6,0,.6-.54,0-1.81,0-3.62,0-5.42,0-.44-.08-.52-.54-.52h-5.31c-.67,0-.7,0-.71.66s0,1.2,0,1.81v3.51c0,.45.07.51.54.51ZM271.76,25.14c-.93,0-1.87,0-2.81,0-.44,0-.51.08-.52.54,0,.91,0,1.81,0,2.72s0,1.74,0,2.61c0,.56.06.61.66.62s1.14,0,1.71,0c1.2,0,2.41,0,3.62,0,.47,0,.56-.09.56-.51,0-1.84,0-3.68,0-5.53,0-.37-.09-.44-.5-.45C273.57,25.13,272.67,25.14,271.76,25.14ZM281,31.63c.91,0,1.81,0,2.72,0,.46,0,.54-.09.55-.52V25.68c0-.07,0-.14,0-.2a.33.33,0,0,0-.31-.33,4.17,4.17,0,0,0-.5,0h-4.93a4.1,4.1,0,0,0-.5,0,.28.28,0,0,0-.28.24,1.46,1.46,0,0,0,0,.3c0,1.77,0,3.55,0,5.32,0,.53.07.6.56.61C279.16,31.64,280.07,31.63,281,31.63Zm-18.51,0h.6c.74,0,1.47,0,2.21,0,.37,0,.44-.1.47-.49V25.92c0-.17,0-.34,0-.5a.27.27,0,0,0-.26-.26c-.23,0-.47,0-.7,0h-5.21a.34.34,0,0,0-.37.38v5.62c0,.38.1.48.47.48ZM249.92,45.45h0c0,.94,0,1.87,0,2.81,0,.32.09.42.42.42H256c.44,0,.51-.07.51-.54,0-1.8,0-3.61,0-5.41,0-.45-.08-.53-.53-.53H252c-.54,0-1.07,0-1.61,0s-.5.09-.51.54Zm31,3.23h2.91a.35.35,0,0,0,.38-.36c0-.17,0-.34,0-.5V44.61c0-.63,0-1.27,0-1.9,0-.4-.1-.51-.45-.51-1.87,0-3.74,0-5.62,0-.38,0-.48.09-.48.47,0,1.84,0,3.67,0,5.51,0,.44.06.5.55.5Zm55.5,0h2.71c.54,0,.6,0,.6-.55,0-1.81,0-3.61,0-5.42,0-.44-.08-.51-.54-.51h-5.42c-.53,0-.58.06-.59.57s0,1.27,0,1.9c0,1.17,0,2.34,0,3.51,0,.45.06.51.54.51Zm9.22,0h2.91c.33,0,.41-.1.44-.41V43c0-.14,0-.27,0-.4a.35.35,0,0,0-.39-.36h-5.72c-.32,0-.43.1-.43.41,0,1.88,0,3.75,0,5.62,0,.38.07.45.49.45ZM280.9,23.14h2.9c.33,0,.41-.1.44-.41v-.4c0-1.61,0-3.21,0-4.82,0-.85,0-.86-.91-.86-1.4,0-2.8,0-4.21,0-.33,0-.67,0-1,0s-.43.12-.43.42v5.62c0,.36.09.44.5.44Z"/><path class="cls-1" d="M149.09,117.05c0-.16-.12-.22-.27-.23-.56,0-1.13-.12-1.7-.15A66.43,66.43,0,0,1,137,115.23a43.06,43.06,0,0,1-10.3-3.63,28.44,28.44,0,0,1-9.23-7.32A24.5,24.5,0,0,1,112.51,94a35,35,0,0,1-.51-10.9,62.82,62.82,0,0,1,2.13-10.62q3.11-11.44,6.18-22.88c0-.13.06-.27.1-.39.14-.45.17-.48.63-.48h5.23c.66,0,.67,0,.67-.68,0-1.71,0-3.42,0-5.13a2.68,2.68,0,0,0,0-.4.27.27,0,0,0-.27-.25l-.8,0h-3.12c-.33,0-.41-.13-.32-.45.55-1.85.06-1.51,1.92-1.55h2.22a.34.34,0,0,0,.38-.36c0-.13,0-.26,0-.4V34.49c0-.13,0-.26,0-.4,0-.32-.1-.42-.42-.44s-.53,0-.8,0a2.43,2.43,0,0,1-.89-.07,3.64,3.64,0,0,1,.29-1.72.37.37,0,0,1,.31-.21l1.11,0c.3,0,.39-.12.41-.44s0-.47,0-.71V25.55a4.14,4.14,0,0,1,.13-1.1c.82-3,1.62-6,2.43-9,0-.16.08-.33.13-.49a.37.37,0,0,1,.36-.3c.23,0,.46,0,.7,0h4.53a5.58,5.58,0,0,0,.7,0,.28.28,0,0,0,.25-.26,4.36,4.36,0,0,0,0-.51V8.91c0-.14,0-.27,0-.4,0-.3-.13-.4-.45-.42h-3.62A.78.78,0,0,1,131.6,8,4.55,4.55,0,0,1,132,6.35c.07-.24.28-.26.49-.26H135c1.38,0,1.22.13,1.23-1.25,0-1.07,0-2.14,0-3.21,0-.39.09-.46.49-.47.6,0,1.2,0,1.81,0a.35.35,0,0,1,.39.36c0,.3,0,.6,0,.9,0,1,0,2.08,0,3.12,0,.47.07.53.51.55h5c1,0,1,0,1-.92v-3c0-.23,0-.47,0-.7a.26.26,0,0,1,.23-.28l.2,0c2.65.06,2.24-.54,2.29,2.12,0,.81,0,1.61,0,2.42a.35.35,0,0,0,.37.38h5.53c.52,0,.59-.07.59-.57,0-1.07,0-2.14,0-3.21,0-.27,0-.54,0-.81a.31.31,0,0,1,.3-.33h2.11a.27.27,0,0,1,.25.27c0,.23,0,.47,0,.7V5.26c0,.68,0,.86.75.83a1.51,1.51,0,0,1,.3,0c.2,0,.32.12.27.33s-.22.7-.3,1.06-.22.62-.65.61c-.24,0-.35.17-.36.4,0,.6,0,1.2,0,1.81a4,4,0,0,1-.13,1.19q-1.12,3.86-2.24,7.72c-.05.15-.11.3-.16.46-.22-.06-.12-.21-.15-.32a1.48,1.48,0,0,1,0-.3c0-.67,0-1.34,0-2a.36.36,0,0,0-.35-.4h-5.63c-.44,0-.51.08-.52.55v5.43c0,.43.08.5.55.5h4.73c.2,0,.33.1.28.3-.12.49-.26,1-.4,1.45a.29.29,0,0,1-.3.22l-.81,0c-1.17,0-2.34,0-3.52,0-.45,0-.52.08-.53.53,0,1.81,0,3.62,0,5.43,0,.44.08.51.54.52.74,0,1.47,0,2.21,0,.31,0,.43.15.34.45-.55,1.83-.12,1.52-1.85,1.55-1.34,0-1.25-.11-1.25,1.24V39.4c0,.65,0,.65.66.91a1.07,1.07,0,0,1-.1.58,12.88,12.88,0,0,0-.58,1.79c-.11.63-.3,1.23-.47,1.84q-3.47,12-6.93,24c-.56,1.93-1.13,3.86-1.63,5.8a19.91,19.91,0,0,0-.66,5.37,12.75,12.75,0,0,0,3,8.44,14.44,14.44,0,0,0,5.18,3.73,24.49,24.49,0,0,0,5.88,1.65,41,41,0,0,0,9.13.35,36.17,36.17,0,0,0,8.17-1.55,39.84,39.84,0,0,0,9-4,25.55,25.55,0,0,0,11.51-14.57c.73-2.3,1.34-4.63,2-7,1.57-5.65,3.13-11.29,4.72-16.93.41-1.46.13-1.2,1.58-1.23h2a.31.31,0,0,0,.32-.31c0-.07,0-.13,0-.2V42.73c0-.46-.08-.52-.53-.53s-.73,0-1.12,0a3.8,3.8,0,0,1,.19-1.12c.1-.61.36-1,1.05-.89.31,0,.4-.11.4-.44,0-1,0-2.08,0-3.12a5.28,5.28,0,0,1,.2-1.48c.71-2.52,1.4-5,2.1-7.55a1.14,1.14,0,0,1,.28-.65c.17.14.11.35.11.51,0,1.11,0,2.22,0,3.32,0,.14,0,.27,0,.4,0,.36.11.44.51.46h5.23a4.1,4.1,0,0,0,.5,0,.33.33,0,0,0,.3-.34,1.34,1.34,0,0,0,0-.2q0-2.71,0-5.43c0-.45-.05-.49-.55-.5-1.51,0-3,0-4.53,0h-1a4.51,4.51,0,0,1,.36-1.85.38.38,0,0,1,.25-.13c.27,0,.54,0,.81,0h4.12c.47,0,.53-.06.53-.52q0-2.71,0-5.43c0-.45-.08-.53-.52-.54h-2.92c-.27,0-.39-.14-.33-.38.14-.51.12-1.13.51-1.49s.9-.1,1.36-.12,1,0,1.51,0a.37.37,0,0,0,.39-.38c0-.1,0-.2,0-.3V8.82c0-.13,0-.27,0-.4a.35.35,0,0,0-.33-.32h-.1c-.29,0-.67.12-.86-.11s0-.63.1-.94l.12-.49a.54.54,0,0,1,.56-.47c.45,0,.53,0,.53-.63s0-1.47,0-2.21a5.51,5.51,0,0,1,.35-1.76.41.41,0,0,1,.44-.33c.51,0,1,0,1.51,0,.3,0,.39.11.39.46,0,.77,0,1.54,0,2.31,0,.5,0,1,0,1.51s.05.64.61.65H219c.42,0,.5-.09.51-.56s0-1.14,0-1.71c0-.73,0-1.47,0-2.21,0-.34.09-.44.4-.45.63,0,1.27,0,1.91,0a.34.34,0,0,1,.37.38c0,1,0,2,0,3,0,1.78-.26,1.53,1.54,1.54h4.43c.5,0,.57-.07.57-.59,0-1.07,0-2.15,0-3.22,0-.27,0-.53,0-.8a.3.3,0,0,1,.32-.31h2c.25,0,.34.18.34.4,0,1.08,0,2.15,0,3.22,0,1.44-.16,1.31,1.27,1.31h2.82a.84.84,0,0,1,.59.11,7.11,7.11,0,0,1-.38,1.64.33.33,0,0,1-.3.23H232c-.48,0-.57.08-.57.5,0,1.85,0,3.69,0,5.53,0,.43.09.5.56.51s.81,0,1.21,0a.76.76,0,0,1,.59.14,6.36,6.36,0,0,1-.35,1.54.43.43,0,0,1-.46.31h-.4c-1.3,0-1.15-.07-1.16,1.22V22a1.66,1.66,0,0,0,0,.5,4,4,0,0,1-.25,2.25c-.73,2.71-1.46,5.43-2.2,8.14,0,.17-.08.33-.13.49a.39.39,0,0,1-.38.27h-5.13c-.23,0-.47,0-.7,0s-.44.11-.47.5v5.43c0,.54.07.6.57.61.67,0,1.34,0,2,0l1.91,0c.21,0,.29.13.26.33-.27,1.65-.27,1.65-1.94,1.65h-2.41a.35.35,0,0,0-.39.36c0,.14,0,.27,0,.41v5.32a.34.34,0,0,0,.37.38c.37,0,.74,0,1.1,0a2.45,2.45,0,0,1,1,.09c-.07.32-.13.65-.22,1-2.25,8.34-4.48,16.68-6.75,25a55,55,0,0,1-10,20.09,53.11,53.11,0,0,1-14.28,12.39,63.38,63.38,0,0,1-17.5,7.18,77.51,77.51,0,0,1-9.57,1.78c-1.93.23-3.87.36-5.8.54l-1,.1c-.13,0-.14.12-.17.21Zm61.13-80h0c0-.87,0-1.74,0-2.61s0-.75-.71-.75h-5.42c-.32,0-.43.11-.43.43v5.72c0,.3.12.4.46.4h5.62c.39,0,.47-.09.47-.48C210.22,38.81,210.22,37.9,210.22,37Zm9.25-.13h0c0-.93,0-1.87,0-2.81,0-.31-.11-.41-.44-.42h-5.72c-.29,0-.39.11-.39.45,0,1.87,0,3.75,0,5.62,0,.39.08.47.48.47q2.76,0,5.52,0c.49,0,.55-.06.55-.61C219.48,38.68,219.47,37.78,219.47,36.87ZM142.16,8.09h-2.51c-.74,0-.75,0-.76.72V12c0,.74,0,1.47,0,2.21,0,.32.11.42.43.42H145c.3,0,.4-.11.4-.45q0-2.8,0-5.61c0-.4-.09-.48-.48-.48Zm12.54,3.33c0-.93,0-1.87,0-2.8,0-.45-.09-.53-.53-.53h-5.52c-.39,0-.49.09-.49.45,0,1.88,0,3.75,0,5.62,0,.39.09.47.48.48h5.52c.48,0,.54-.07.55-.61C154.71,13.16,154.7,12.29,154.7,11.42Zm61.4,3.22h2.71c.62,0,.66,0,.66-.6,0-1.81,0-3.61,0-5.42,0-.45-.08-.53-.52-.53H215c-.53,0-1.07,0-1.6,0s-.52.08-.52.55c0,1.83,0,3.67,0,5.51,0,.4.08.48.47.48C214.29,14.65,215.2,14.64,216.1,14.64Zm9.34,0h2.81c.38,0,.46-.08.47-.48V8.63c0-.48-.07-.54-.62-.54h-5.51c-.31,0-.42.11-.42.44q0,2.81,0,5.61c0,.43.08.49.56.5ZM136.2,36.9h0c0-.9,0-1.8,0-2.7,0-.49-.07-.56-.51-.56h-5.52c-.44,0-.53.08-.53.53,0,1.84,0,3.68,0,5.52v.1c0,.3.12.4.46.4h5.62c.39,0,.47-.08.47-.48C136.2,38.78,136.2,37.84,136.2,36.9Zm6,3.29h0c.93,0,1.87,0,2.8,0,.4,0,.49-.08.49-.47q0-2.8,0-5.61c0-.38-.09-.47-.49-.47h-5.41c-.59,0-.64,0-.64.62,0,1.77,0,3.54,0,5.31a1.27,1.27,0,0,0,0,.2c0,.32.11.41.44.42C140.27,40.2,141.21,40.19,142.15,40.19Zm-.1-17h3a.34.34,0,0,0,.38-.37c0-.13,0-.26,0-.4V17.44c0-.17,0-.34,0-.5a.3.3,0,0,0-.32-.31l-1.81,0h-3.92c-.39,0-.47.1-.48.49,0,.73,0,1.47,0,2.21,0,1.1,0,2.21,0,3.31,0,.45.06.51.54.51Zm-5.85-3.22h0V18.31c0-.43,0-.87,0-1.3a.35.35,0,0,0-.36-.39H130.2c-.46,0-.56.09-.56.51v5.53c0,.4.09.48.47.48q2.82,0,5.64,0c.37,0,.44-.08.44-.49C136.2,21.73,136.2,20.83,136.2,19.92Zm9.24,8.44c0-.9,0-1.81,0-2.71,0-.45-.06-.51-.54-.51q-2.76,0-5.52,0c-.4,0-.48.08-.48.47q0,2.76,0,5.52c0,.44.09.52.54.53.94,0,1.88,0,2.81,0s1.81,0,2.71,0c.39,0,.48-.1.48-.48C145.45,30.23,145.44,29.3,145.44,28.36Zm-15.8-.06h0c0,1,0,1.94,0,2.91,0,.33.1.41.42.44h.2c1.77,0,3.55,0,5.32,0,.54,0,.6-.07.61-.57V25.67c0-.46-.07-.53-.52-.53-1.85,0-3.69,0-5.53,0-.44,0-.5.08-.51.55C129.63,26.56,129.64,27.43,129.64,28.3Zm77.21,20.38h3c.24,0,.35-.15.36-.39V43c0-.13,0-.26,0-.4a.36.36,0,0,0-.37-.37h-5.62c-.48,0-.56.07-.56.5,0,1.84,0,3.67,0,5.51,0,.39.08.47.48.47Zm6.06-28.87h0c0,.94,0,1.88,0,2.81,0,.45.06.51.53.51,1.81,0,3.62,0,5.42,0,.57,0,.6,0,.6-.65,0-.93,0-1.87,0-2.81s0-1.67,0-2.5c0-.44-.09-.53-.54-.53-1.8,0-3.61,0-5.42,0-.52,0-.59.08-.6.57C212.9,18.08,212.91,19,212.91,19.81Zm9.26,0h0v1c0,.64,0,1.27,0,1.91a.34.34,0,0,0,.35.39h5.42l.5,0a.27.27,0,0,0,.26-.25c0-.2,0-.4,0-.6v-3.4c0-.51,0-1,0-1.51,0-.66,0-.7-.66-.71-.43,0-.87,0-1.3,0-1.37,0-2.74,0-4.11,0-.38,0-.47.11-.48.48C222.16,18,222.17,18.93,222.17,19.83Zm-6.08,11.8H219c.37,0,.47-.1.47-.48q0-2.76,0-5.52c0-.4-.07-.48-.47-.48h-5.61c-.4,0-.47.08-.47.48,0,1.83,0,3.67,0,5.51,0,.39.09.49.46.49Zm9.33,0h0c.9,0,1.81,0,2.71,0,.51,0,.59-.08.59-.59,0-1.77,0-3.55,0-5.33a1.41,1.41,0,0,0,0-.2.34.34,0,0,0-.37-.37h-.21c-1.81,0-3.62,0-5.43,0-.46,0-.53.07-.53.52,0,1.24,0,2.48,0,3.72,0,.6,0,1.21,0,1.81,0,.31.12.43.43.43ZM132.92,42.2h-2.8c-.38,0-.47.1-.48.48V48.2c0,.39.09.48.47.48h5.62c.4,0,.46-.07.46-.48,0-1.84,0-3.67,0-5.51,0-.4-.08-.49-.46-.49C134.8,42.19,133.86,42.2,132.92,42.2Zm9.19,6.48h2.81c.46,0,.52-.07.52-.52,0-1.81,0-3.61,0-5.41a1.27,1.27,0,0,0,0-.2.32.32,0,0,0-.29-.34,4.26,4.26,0,0,0-.5,0h-4.91a4.1,4.1,0,0,0-.5,0,.32.32,0,0,0-.32.32c0,.47,0,.93,0,1.4,0,1.37,0,2.74,0,4.11,0,.6,0,.64.61.64Zm74.06-6.49h0c-.94,0-1.88,0-2.81,0-.32,0-.44.11-.44.41,0,1.87,0,3.74,0,5.62,0,.34.09.44.39.45h5.82c.25,0,.34-.17.34-.39,0-1.88,0-3.75,0-5.62,0-.37-.1-.46-.49-.46Z"/><path class="cls-1" d="M74.05,0a28.31,28.31,0,0,1,.11,2.91c0,.87,0,1.74,0,2.61,0,.48.07.56.51.56h5.53c.37,0,.46-.1.46-.5,0-1.37,0-2.75,0-4.12,0-.27,0-.54,0-.81s.08-.45.5-.43c.63,0,1.27.1,1.9.16.26,0,.33.19.33.42,0,1.07,0,2.14,0,3.21,0,.47,0,.94,0,1.41s0,.66.61.66h5.33a1.53,1.53,0,0,0,.3,0,.27.27,0,0,0,.25-.27c0-.26,0-.53,0-.8,0-1.14,0-2.28,0-3.42,0-.32.12-.42.44-.36.66.13,1.31.28,2,.42a.37.37,0,0,1,.31.35c0,.23,0,.47,0,.7,0,.94,0,1.88,0,2.82,0,.53.06.59.57.59h5.33c.54,0,.59-.06.6-.56s0-1.28,0-1.91c0-.38.13-.47.51-.36.61.18,1.21.39,1.82.57a.54.54,0,0,1,.41.6c0,.41,0,.81,0,1.21s.1.43.41.45h.7c1.07,0,2.15,0,3.22,0a2.39,2.39,0,0,1,1.25.31c1.06.56,2.09,1.19,3.13,1.81a1,1,0,0,1,.53,1,4.92,4.92,0,0,1-.44,2.23c-.68,1.46-1.3,2.95-1.94,4.42-.08.18-.16.37-.25.55a.45.45,0,0,1-.41.24h-5.23c-.23,0-.47,0-.7,0a.27.27,0,0,0-.25.27,4.07,4.07,0,0,0,0,.5v4.92a4.07,4.07,0,0,0,0,.5.25.25,0,0,0,.26.25c.4,0,.8,0,1.21,0,.66,0,1.32,0,2,0a5.31,5.31,0,0,1-.68,1.81c-.09.18-.29.15-.45.15h-1.91c-.4,0-.48.08-.48.47,0,1,0,1.94,0,2.92v1c-.23.2-.37.06-.5,0-.56-.31-1.1-.66-1.67-.93a.91.91,0,0,1-.58-1c0-.57,0-1.14,0-1.71,0-.74,0-.74-.7-.75-.88,0-1.75,0-2.62,0A15.67,15.67,0,0,1,93,25.08a15,15,0,0,1-2.62-1,21.42,21.42,0,0,1-2.11-.92l1.34,0a.33.33,0,0,0,.36-.37c0-.4,0-.81,0-1.21,0-1.47,0-2.95,0-4.42,0-.4-.08-.48-.47-.48H83.92c-.42,0-.49.08-.5.57,0,1.24,0,2.48,0,3.72,0,.26,0,.53,0,.8s-.13.36-.39.29c-.75-.18-1.49-.38-2.24-.57a8.78,8.78,0,0,1-.1-2.29c0-.67,0-1.34,0-2,0-.44-.08-.51-.54-.52H74.6c-.33,0-.42.1-.42.43,0,.81,0,1.61,0,2.41,0,.31,0,.61,0,.91s-.14.34-.39.35h-.2a6.06,6.06,0,0,1-2.07-.28,9.93,9.93,0,0,1-.07-1.89c0-.51,0-1,0-1.51,0-.3-.11-.39-.44-.41H65.64l-.4,0a.32.32,0,0,0-.3.34c0,.36,0,.73,0,1.1,0,.87,0,1.74,0,2.62a.36.36,0,0,1-.36.39l-2,.16c-.27,0-.38-.08-.39-.34,0-.51,0-1,0-1.51,0-.74,0-1.48,0-2.21,0-.48-.07-.56-.5-.56H56.13c-.37,0-.45.09-.45.5,0,1.51,0,3,0,4.52s.06,1.14-1.15,1.43A14.32,14.32,0,0,0,50,24.89a1.62,1.62,0,0,1-.95.25c-.74,0-1.48,0-2.22,0a.33.33,0,0,0-.37.36c0,.47,0,.94,0,1.41a.93.93,0,0,1-.28.72,14.84,14.84,0,0,0-2.29,3.05s-.05,0-.08,0c-.19-.11-.1-.29-.1-.44,0-1.37,0-2.74,0-4.12,0-.23,0-.47,0-.7a.31.31,0,0,0-.31-.32H37.51a.3.3,0,0,0-.33.3,4.35,4.35,0,0,0,0,.51v4.82c0,.17,0,.34,0,.5a.32.32,0,0,0,.31.33l.8,0h4.23a1.36,1.36,0,0,1,.77.08c.09.18,0,.33-.07.48a3.57,3.57,0,0,0-.38,1.14.31.31,0,0,1-.33.29c-.24,0-.47,0-.71,0H37.68c-.43,0-.49.1-.52.56v5.13c0,.17,0,.33,0,.5a.36.36,0,0,0,.4.35h.71c1.67,0,3.35,0,5,0,.34,0,.58.06.7.39a3,3,0,0,0,1.52,1.54c1,.59.88.37.88,1.56s0,2.68,0,4c0,.24,0,.47,0,.7a.27.27,0,0,0,.25.27,2.61,2.61,0,0,0,.4,0h5.13c.68,0,.69,0,.7-.75s0-1.21,0-1.81a.87.87,0,0,1,.11-.6c.7.15,1.42.29,2.14.46.46.11.49.14.5.6s0,1.07,0,1.61.07.47.45.49h5.63c.31,0,.37-.09.4-.45v-.1c0-.78.15-.73.75-.63s1,.23,1.47.31.56.18.56.56.21.31.42.31h2.21a10.83,10.83,0,0,1,2.2.18c4.22.75,8.42,1.57,12.58,2.63a47.53,47.53,0,0,1,11,4.26,22.13,22.13,0,0,1,5.44,3.93A17.84,17.84,0,0,1,104,69.92a21.22,21.22,0,0,1,.14,4.51,42.49,42.49,0,0,1-3.39,13.68,38.28,38.28,0,0,1-9.94,13.62A52.86,52.86,0,0,1,75,111.19a73.6,73.6,0,0,1-13.5,3.88c-2.43.47-4.88.85-7.34,1.12-2.16.24-4.34.37-6.51.55-.33,0-.67.06-1,.1-.13,0-.14.12-.16.21H35.21c0-.09-.05-.19-.17-.21l-.8-.08c-1.6-.12-3.21-.2-4.81-.38-2.63-.28-5.25-.64-7.86-1.11a89.09,89.09,0,0,1-10.43-2.55A106.51,106.51,0,0,1,.68,108.61c-.76-.32-.83-.25-.48-1.17Q3.89,97.72,7.56,88c.14-.36.15-.89.52-1s.73.26,1.08.44a59.68,59.68,0,0,0,9.62,4c1.95.59,3.92,1.12,5.88,1.71A68.41,68.41,0,0,0,32.16,95c2.4.45,4.83.75,7.26,1,2.21.2,4.42.28,6.63.27a69.92,69.92,0,0,0,10.22-.69,45,45,0,0,0,8-1.88A26,26,0,0,0,71,90.32a13.56,13.56,0,0,0,6-9.82,6.29,6.29,0,0,0-2.24-5.93,15.66,15.66,0,0,0-1.55-1.12,18.89,18.89,0,0,0-5.46-2.24c-2.14-.56-4.3-1-6.48-1.37s-4.5-.71-6.75-1-4.25-.57-6.37-.91-4.42-.74-6.63-1.13-4.41-.82-6.58-1.41a45.64,45.64,0,0,1-10.06-4,19.25,19.25,0,0,1-8.51-9.07,9.74,9.74,0,0,1-.66-3.23.46.46,0,0,1,0-.29,1.27,1.27,0,0,0,.18-.87v-5c0-.34,0-.69-.45-.74-.13,0-.2-.18-.18-.32.1-.61,0-1.28.53-1.76.08-.06.09-.24.09-.37,0-.37,0-.74,0-1.11a15.28,15.28,0,0,1,.69-4.65,47.92,47.92,0,0,1,1.72-4.5c.06-.15.11-.33.36-.25,0,.67,0,1.34,0,2,0,.32.1.41.43.42h5.63c.32,0,.41-.11.42-.44,0-.64,0-1.27,0-1.91,0-1.17,0-2.35,0-3.52,0-.58,0-.6-.64-.61H21.29c-.22,0-.46.09-.66-.1a1.14,1.14,0,0,1,.32-.71c.95-1.44.48-1.15,2.12-1.18h1.71a.33.33,0,0,0,.37-.38v-.6c0-1,0-2.08,0-3.12a1.11,1.11,0,0,1,.27-.83c1-1.06,1.92-2.14,3-3.14a1.5,1.5,0,0,1,1.17-.43c1.28,0,2.55,0,3.83,0l.7,0a.32.32,0,0,0,.31-.33c0-.57,0-1.14,0-1.71a9.55,9.55,0,0,1,.08-2c.59-.44,1.18-.88,1.78-1.31.23-.16.52-.43.8-.25s.08.5.09.76c0,1.44,0,2.88,0,4.32,0,.44.09.53.53.53h5.43c.46,0,.53-.07.53-.53,0-1.81,0-3.62,0-5.43,0-.1,0-.2,0-.3a.29.29,0,0,0-.26-.26c-.24,0-.47,0-.7,0H39.46c-.12,0-.28,0-.32-.21.73-.43,1.52-.77,2.3-1.13.46-.22.92-.42,1.39-.59s.82,0,1-.49a16.45,16.45,0,0,1,2.25-.84.22.22,0,0,1,.29.2c0,.23,0,.46,0,.7a.35.35,0,0,0,.38.36h5.13c1,0,1,0,1-1v-2c0-.17,0-.36.22-.41a14.63,14.63,0,0,1,2.4-.56,1.32,1.32,0,0,1,.13.83c0,.87,0,1.74,0,2.61,0,.45.08.52.53.53h3.52c.67,0,1.34,0,2,0,.31,0,.41-.1.42-.43,0-.9,0-1.81,0-2.71a5.65,5.65,0,0,1,.1-1.88,7.89,7.89,0,0,1,1.87-.4c.73-.15.79-.07.79.7,0,1.24,0,2.48,0,3.73,0,1,0,1,1,1H71a.34.34,0,0,0,.39-.35c0-.27,0-.54,0-.81v-4c0-.25-.08-.55.21-.73A7.89,7.89,0,0,0,74.05,0Zm6.62,11.45h0c0-.9,0-1.8,0-2.7,0-.63,0-.66-.6-.66H74.66c-.45,0-.53.07-.53.52,0,1.37,0,2.74,0,4.11,0,.51,0,1,0,1.51,0,.3.12.4.45.41h5.61c.4,0,.48-.09.48-.48C80.68,13.26,80.67,12.36,80.67,11.45ZM95.88,8.09H93.17c-.45,0-.53.07-.53.52,0,1.84,0,3.68,0,5.52,0,0,0,.06,0,.1,0,.31.12.4.44.41H98.7c.4,0,.48-.09.48-.48q0-2.81,0-5.61c0-.38-.09-.46-.49-.46Zm9.26,6.55h2.8c.4,0,.49-.08.49-.47q0-2.8,0-5.61c0-.39-.09-.47-.49-.47h-5.51c-.46,0-.54.07-.54.52,0,1.83,0,3.67,0,5.51v.1c0,.31.12.41.44.41ZM89.93,11.36c0-.93,0-1.87,0-2.81,0-.38-.09-.46-.49-.46H83.92c-.46,0-.54.07-.54.51,0,1.84,0,3.68,0,5.52v.1c0,.31.12.41.44.41h5.62c.4,0,.48-.09.49-.47C89.94,13.23,89.93,12.3,89.93,11.36ZM49.69,8.08H47c-.51,0-.6.08-.6.57q0,2.72,0,5.43c0,.46.09.55.52.55h5.53c.4,0,.48-.08.48-.48,0-1.87,0-3.75,0-5.62,0-.36-.1-.45-.5-.45Zm9.18,6.56h2.92a.35.35,0,0,0,.37-.37c0-.11,0-.21,0-.31V8.73c0-.1,0-.2,0-.3a.33.33,0,0,0-.31-.33l-.6,0H56a.35.35,0,0,0-.37.38c0,.23,0,.47,0,.7v4c0,.27,0,.53,0,.8,0,.59.07.64.63.65ZM71.42,11.5h0c0-.91,0-1.81,0-2.71,0-.67,0-.7-.66-.71H65.33c-.31,0-.42.11-.43.42,0,.54,0,1.08,0,1.61,0,1.27,0,2.55,0,3.82,0,.65,0,.69.67.7h2.92c.83,0,1.67,0,2.51,0,.32,0,.42-.1.42-.42C71.42,13.31,71.42,12.4,71.42,11.5ZM27.92,36.94h0c0,.91,0,1.81,0,2.72,0,.45.08.53.53.53,1.34,0,2.68,0,4,0,.51,0,1,0,1.51,0,.33,0,.42-.1.42-.43,0-1.88,0-3.76,0-5.63,0-.4-.08-.49-.47-.49H28.4c-.37,0-.47.11-.48.49C27.91,35.07,27.92,36,27.92,36.94Zm-2.77,0h0c0-.94,0-1.87,0-2.81,0-.39-.09-.47-.48-.48H19.24c-.5,0-.57.08-.58.6v3.32c0,.73,0,1.47,0,2.21,0,.32.1.41.43.42.88,0,1.75,0,2.62,0s1.94,0,2.92,0c.44,0,.51-.07.51-.54C25.16,38.74,25.15,37.84,25.15,36.93Zm74-17h0v-2c0-.3,0-.6,0-.9a.35.35,0,0,0-.37-.37h-.2c-1.81,0-3.61,0-5.42,0-.46,0-.55.09-.55.51q0,2.76,0,5.52c0,.38.09.46.48.46,1.87,0,3.74,0,5.62,0,.37,0,.44-.08.44-.49C99.19,21.73,99.18,20.83,99.18,19.93Zm-68.07,3.2h0c.94,0,1.87,0,2.81,0,.42,0,.48-.06.48-.45,0-1.84,0-3.68,0-5.51,0-.45-.07-.52-.53-.53H28.56c-.59,0-.63.05-.64.62,0,1.77,0,3.54,0,5.31,0,.07,0,.13,0,.2,0,.25.14.36.38.36Zm21.8-3.21h0c0-.94,0-1.87,0-2.81,0-.38-.08-.46-.48-.46H46.91c-.4,0-.46.08-.49.46v.2c0,1.77,0,3.54,0,5.31,0,.43.07.51.44.51,1.87,0,3.74,0,5.62,0,.37,0,.43-.08.43-.5C52.92,21.72,52.91,20.82,52.91,19.92Zm-9.25,0h0c0-.9,0-1.8,0-2.71,0-.48-.07-.55-.5-.55H37.65c-.39,0-.48.08-.48.47,0,1.84,0,3.68,0,5.51,0,.42.07.5.44.5,1.88,0,3.75,0,5.62,0,.34,0,.42-.09.42-.41C43.66,21.78,43.66,20.85,43.66,19.91ZM21.84,48.68h2.82c.42,0,.48-.07.49-.46V42.69c0-.4-.08-.49-.46-.49-1.84,0-3.69,0-5.53,0-.41,0-.49.07-.49.46,0,1.84,0,3.69,0,5.53,0,.44.06.48.56.49ZM34.4,28.44h0c0-.94,0-1.87,0-2.81,0-.42-.06-.48-.46-.48H28.41c-.41,0-.48.07-.48.46,0,1.84,0,3.68,0,5.53,0,.41.07.49.45.49h5.53c.41,0,.49-.08.49-.46C34.41,30.25,34.4,29.35,34.4,28.44ZM31.09,48.68h2.82c.42,0,.49-.07.49-.45,0-1.84,0-3.69,0-5.53,0-.41-.08-.5-.45-.5-1.84,0-3.69,0-5.53,0-.42,0-.49.07-.49.46,0,1.84,0,3.68,0,5.53,0,.43.07.48.56.49Zm12.57-3.23h0c0-.9,0-1.81,0-2.71,0-.46-.07-.54-.51-.54-1.84,0-3.67,0-5.51,0-.4,0-.46.08-.47.48,0,.6,0,1.2,0,1.8,0,1.21,0,2.41,0,3.61,0,.54.05.58.57.59h5.51c.33,0,.41-.1.42-.43Z"/><path class="cls-1" d="M530.36,85.47h-41c-.34,0-.67,0-1,0a.67.67,0,0,1-.6-.86,3.31,3.31,0,0,1,.25-.66q2.29-5.23,4.61-10.48c.08-.18.16-.37.25-.55a.79.79,0,0,1,.71-.47h73.21a1.14,1.14,0,0,1,1.29.84c1.56,3.59,3.15,7.17,4.73,10.76a2.43,2.43,0,0,1,.16.37c.22.64,0,1-.74,1.07-.3,0-.6,0-.91,0Z"/><path class="cls-1" d="M530.39,67.36c-2.15,0-4.29,0-6.44,0-1.05,0-1.25-.27-1-1.29q1.79-6.12,3.58-12.24,1.47-5,2.95-10a3,3,0,0,1,.23-.66.58.58,0,0,1,1,0,3.55,3.55,0,0,1,.32.84q1.63,5.43,3.26,10.87t3.16,10.58a11.85,11.85,0,0,1,.31,1.17.6.6,0,0,1-.59.76c-.23,0-.47,0-.7,0Z"/><path class="cls-2" d="M374.23,116.58a2.24,2.24,0,0,1-.49-1.76V2.11a6.78,6.78,0,0,1,0-.9A.74.74,0,0,1,374.5.5a5.29,5.29,0,0,1,.8,0h53.61a51.35,51.35,0,0,1,6.32.31A35.41,35.41,0,0,1,448,4.66,31.13,31.13,0,0,1,460,16.17a33.83,33.83,0,0,1,4.23,11.41,46.82,46.82,0,0,1,.53,11.52,33.31,33.31,0,0,1-1.93,9.61,22,22,0,0,1-4.07,6.88A39.49,39.49,0,0,1,444.43,66.1c-1.87.8-3.75,1.59-5.7,2.21a2.43,2.43,0,0,0-.38.13.81.81,0,0,0-.4,1.24c.15.26.33.5.5.75L468.51,114c.21.3.43.6.63.91.36.57.34.79-.1,1.34-.08.11-.17.21-.25.31H444.85c-.1-.51-.52-.82-.8-1.22q-9.49-14-19-28Q419.5,79.22,414,71.08a2.94,2.94,0,0,1-.54-1.77c0-1.61,0-3.22,0-4.82,0-1.95,0-3.89,0-5.83,0-.71.14-.88.78-1.12.12,0,.26-.07.39-.11,4.75-1.46,9.5-2.94,14.26-4.39a21.68,21.68,0,0,0,6.53-3.24,15.64,15.64,0,0,0,5.31-6.18,20.13,20.13,0,0,0,1.77-11.06A12.91,12.91,0,0,0,441,27.9a11.53,11.53,0,0,0-6.13-5.53,13,13,0,0,0-4.63-.75h-31c-.2,0-.4,0-.61,0a.8.8,0,0,0-.85.79,8.47,8.47,0,0,0,0,1v91.07c0,.34,0,.67,0,1a.92.92,0,0,1-.29.72.38.38,0,0,0-.16.34Z"/><path class="cls-2" d="M643.42,116.58c-.17-.21-.43-.15-.65-.16-1.54-.09-3.08-.15-4.62-.26-1.37-.08-2.74-.21-4.11-.33-.73-.06-1.46-.17-2.2-.21A22.77,22.77,0,0,1,628,115a57.42,57.42,0,0,1-12.7-4.29,44.9,44.9,0,0,1-22.76-24.39,60.17,60.17,0,0,1-3.21-11.17c-.48-2.47-.89-5-1.16-7.44a88.77,88.77,0,0,1-.53-14.85c.16-2.91.43-5.81.88-8.7a61.6,61.6,0,0,1,4.55-16.07A42.62,42.62,0,0,1,613.12,7.17,60,60,0,0,1,625.7,2.56c2.11-.53,4.23-1,6.38-1.34,1.39-.21,2.79-.36,4.19-.5A67.9,67.9,0,0,1,643.4.53c2.52,0,5,0,7.55,0,2.71,0,5.43,0,8.14,0a28.76,28.76,0,0,1,3.21.28c1.59.19,3.18.46,4.76.72a79.38,79.38,0,0,1,11.86,3c.76.24,1.53.49,2.28.77,1,.36,1.19.66,1.19,1.71,0,2.12,0,4.23,0,6.34q0,6.59,0,13.17a5.48,5.48,0,0,1,0,.7,1.36,1.36,0,0,1-1.68,1.17,5.2,5.2,0,0,1-.76-.25A80.09,80.09,0,0,0,669.94,25c-2.53-.62-5.09-1.14-7.67-1.54-2-.33-4.11-.58-6.18-.71a60.79,60.79,0,0,0-7.14-.16c-1.67.09-3.35.13-5,.31-1.86.2-3.72.45-5.56.81a50.75,50.75,0,0,0-7.09,1.79,31.4,31.4,0,0,0-11,6.31,30,30,0,0,0-8.46,13.33,40.13,40.13,0,0,0-1.66,7.74c-.19,1.67-.35,3.33-.48,5a23.9,23.9,0,0,0,.51,6.9,70.55,70.55,0,0,0,2.63,9.46,31.56,31.56,0,0,0,6.79,11.05,30.54,30.54,0,0,0,11.92,7.58,46,46,0,0,0,8.26,2c1.89.31,3.78.57,5.68.72a59.79,59.79,0,0,0,9.65.13c1.36-.11,2.74-.15,4.1-.31,1.63-.18,3.26-.42,4.87-.7a81.34,81.34,0,0,0,12-3.09c1.27-.43,2.51-.92,3.77-1.37a2.84,2.84,0,0,1,.86-.25,1.33,1.33,0,0,1,1.51,1.26c.06.67.05,1.34.05,2,0,3.46,0,6.91,0,10.36,0,1.94,0,3.89.06,5.83v.6a1.6,1.6,0,0,1-1.33,1.85,73.74,73.74,0,0,1-7.71,2.22q-3.71.85-7.49,1.38c-2.06.28-4.12.53-6.19.68a8.75,8.75,0,0,0-2.38.37,1.34,1.34,0,0,1-.4,0Z"/><path class="cls-2" d="M774.6,116.58c-1.41-1.82-2.62-3.78-3.9-5.69L738.48,62.7c-.84-1.25-.73-.77-.73-2.41,0-4.56,0-9.12,0-13.67a3.44,3.44,0,0,1,.66-2.14Q752.2,24.89,766,5.27l2.6-3.7A5.56,5.56,0,0,1,769,1a1.2,1.2,0,0,1,.87-.43h22.53a5.39,5.39,0,0,1,.9,0,1.14,1.14,0,0,1,.84,1.81c-.16.25-.35.49-.53.73L760.78,47l-2.65,3.54c-.12.16-.24.32-.35.49a1.08,1.08,0,0,0,0,1.31c.16.25.33.5.5.75l40.84,60.79a6.84,6.84,0,0,1,.54.95,1.26,1.26,0,0,1-.09,1.21c-.1.21-.4.27-.38.55Z"/><path class="cls-2" d="M700.56,116.58a2.47,2.47,0,0,0-.28-.28,1.28,1.28,0,0,1-.51-1.14c0-.2,0-.4,0-.61q0-56.05,0-112.11a7.09,7.09,0,0,1,0-.8,1.12,1.12,0,0,1,1-1.06,5.43,5.43,0,0,1,.7,0c6.84,0,13.68,0,20.52,0,1.27,0,1.72.42,1.71,1.72,0,8.21,0,16.42,0,24.63v87.28c0,.27,0,.54,0,.8a1.44,1.44,0,0,1-.59,1.41s0,.12,0,.18Z"/><path class="cls-2" d="M561.14,116.58c-.16-.44-.65-.64-.77-1.12s-.3-.82-.45-1.23l-8.34-21.51c-.12-.31-.25-.62-.34-.94a1.18,1.18,0,0,1,1-1.61,4.11,4.11,0,0,1,.7,0h21.32a1.65,1.65,0,0,1,1.83,1.2c1.42,3.46,2.9,6.9,4.36,10.35.89,2.13,1.79,4.25,2.68,6.38l.24.55a1.19,1.19,0,0,0,1.16.8H597.7c.27,0,.54,0,.8,0a1.24,1.24,0,0,1,1.24,1.31c0,.7,0,1.41,0,2.11s0,1.41,0,2.11a1.43,1.43,0,0,1-.56,1.32,1.19,1.19,0,0,0-.23.31Z"/><path class="cls-2" d="M475.23,116.58a1.5,1.5,0,0,0-.18-.24,1.23,1.23,0,0,1-.28-1.62c1-2.24,1.91-4.49,2.86-6.74q3.48-8.28,7-16.55c0-.06.06-.12.08-.19a1.53,1.53,0,0,1,1.72-1.18c7.17,0,14.34,0,21.52,0a3.59,3.59,0,0,1,.8,0,1,1,0,0,1,.76,1.3,8.57,8.57,0,0,1-.3.85L500.51,115a4.07,4.07,0,0,1-.94,1.62Z"/><path class="cls-2" d="M553.61,66.9H542.54c-.63,0-.72-.07-.92-.69-.55-1.66-1.08-3.31-1.61-5l-8.94-27.8c-.09-.29-.19-.57-.29-.85a.48.48,0,0,0-.47-.32.5.5,0,0,0-.49.29,5.21,5.21,0,0,0-.24.66q-5.15,16.16-10.28,32.32c-.5,1.58-.42,1.36-1.85,1.36H495.72a.59.59,0,0,1-.58-.83,6.13,6.13,0,0,1,.29-.75l7.41-17.57q9.74-23,19.45-46a.36.36,0,0,0,0-.09c.21-.79.67-1.07,1.54-1.06,4.32,0,8.65,0,13,0,.17,0,.34,0,.51,0a.77.77,0,0,1,.79.49c.09.18.16.37.24.55q12.89,30.53,25.76,61c.38.9.75,1.79,1.13,2.68.09.22.2.43.27.65.18.58,0,.9-.66.93H553.61Z"/></g></g></svg>